<svg xmlns="http://www.w3.org/2000/svg" viewBox="0 0 259.637 123.676" xml:space="preserve"><g fill="#FFF" stroke="#000" stroke-linejoin="round" stroke-miterlimit="10"><path stroke-linecap="round" d="M251.722 63.021v9.146l-80.927 44.084v-11.525"/><path d="M170.795 104.905v11.346L22.512 35.282v-8.42"/><path stroke-linecap="round" d="M170.386 104.868 22.492 26.93 99.365 6.113l152.204 56.921z"/></g><path d="m162.53 96.693 11.395-5.658 1.594.781-2.034 4.687c-.484 1.112-1.024 2.068-1.655 2.953l.051.009c1.403-.859 2.763-1.59 4.538-2.498l4.701-2.405 1.416.694-11.393 5.864-1.52-.782 2.192-4.827c.468-1.034.999-2.059 1.645-2.951l-.067-.017c-1.334.749-2.66 1.445-4.552 2.39l-4.935 2.464-1.376-.704z"/><path fill="none" stroke="#000" stroke-width=".5" stroke-miterlimit="10" d="m75.512 52.808 7.712 3.949"/><path d="m73.94 52.003 1.751 2.038-.062-1.174.989-.635z"/><path fill="none" stroke="#000" stroke-width=".5" stroke-miterlimit="10" d="m101.81 66.354-11.606-5.993"/><path d="m103.378 67.163-1.744-2.044.058 1.174-.99.632zM60.419 15.113l-1.572-6.696.847-.221.735 3.404c.183.836.348 1.677.459 2.332l.018-.005c.101-.732.293-1.626.503-2.599l.821-3.793.829-.216.744 3.391c.173.792.336 1.587.426 2.306l.018-.005c.127-.809.299-1.64.488-2.57l.804-3.768.801-.209-1.722 7.503-.823.224-.772-3.473c-.191-.852-.318-1.511-.4-2.205l-.019.005c-.109.733-.246 1.462-.474 2.438l-.876 3.928-.835.229z"/><g><path fill="none" stroke="#000" stroke-width=".5" stroke-miterlimit="10" d="m24.833 21.632 31.739-8.488"/><path d="m21.422 22.544 5.331.679-1.666-1.66.616-2.267z"/></g><g><path fill="none" stroke="#000" stroke-width=".5" stroke-miterlimit="10" d="m94.204 3.988-26.931 7.246"/><path d="M97.613 3.071 92.281 2.4l1.668 1.657-.612 2.269z"/></g><g><g fill="#FFF" stroke="#000" stroke-linecap="round" stroke-linejoin="round" stroke-miterlimit="10"><path d="M55.092 52.686v5.106L35.7 46.938v-4.829M164.65 15.988l-20.504-7.001L35.7 42.109 54.821 52.53"/><path d="M164.65 15.988 55.092 52.438v5.354L164.65 20.357z"/></g><path d="m131.805 19.549 14.312-4.559 1.626.574-14.319 4.592-1.619-.607zM58.265 40.267l5.567 2.819-1.285.413-4.242-2.161-3.96 1.25 3.9 2.021-1.29.414-3.895-2.03-5.502 1.737-1.302-.695 12.009-3.768z"/><g><g fill="#FFF" stroke="#000" stroke-linecap="round" stroke-linejoin="round" stroke-miterlimit="10"><path d="M121.599 88.931v6.04l-26.86-15.033v-5.653M232.847 39.277l-26.666-9.106L94.719 74.272l26.479 14.431"/><path d="M232.847 39.277 121.599 88.525v6.446l111.248-50.603z"/></g><path d="M205.529 36.035c1.106.293 2.369.666 3.654 1.12 2.344.827 3.565 1.615 3.809 2.383.265.781-.318 1.555-2.083 2.307-1.795.766-3.928 1.158-6.16 1.151-2.248 0-4.786-.49-7.246-1.4-1.156-.428-2.072-.805-2.802-1.141l10.828-4.42zm-8.098 4.557c.343.178.923.404 1.558.638 3.504 1.29 7.148 1.269 10.129.007 2.591-1.082 2.499-2.373-.961-3.6-.839-.298-1.536-.495-2.043-.614l-8.683 3.569zM119.624 71.344l7.601 3.85-1.341.566-5.8-2.954-4.148 1.708 5.343 2.77-1.351.569-5.34-2.784-5.783 2.382-1.786-.954 12.605-5.153z"/></g></g><g><path fill="none" stroke="#000" stroke-miterlimit="10" d="M96.43 10.959v15.563"/><path d="m96.43 30.759-2.44-5.97 2.44 1.417 2.438-1.417z"/><path fill="none" stroke="#000" stroke-miterlimit="10" d="M151.239 40.204V26.599"/><path d="m151.239 22.362 2.44 5.97-2.44-1.417-2.438 1.417z"/><path fill="none" stroke="#000" stroke-width=".25" stroke-miterlimit="10" d="M120.06 42.644v-3.423"/><path d="m121.307 39.586-1.247-2.159-1.247 2.159z"/><path fill="none" stroke="#000" stroke-width=".25" stroke-miterlimit="10" d="M133.198 48.475v-3.646"/><path d="m134.444 45.194-1.246-2.159-1.247 2.159z"/><g><path fill="none" stroke="#000" stroke-width=".25" stroke-miterlimit="10" d="m122.144 44.416 2.414-2.735"/><path d="m125.25 42.779.495-2.443-2.364.794z"/></g><g><path fill="none" stroke="#000" stroke-width=".25" stroke-miterlimit="10" d="m129.62 47.457-.881-4.042"/><path d="m130.034 43.506-1.678-1.844-.758 2.375z"/></g><g><path fill="none" stroke="#000" stroke-width=".75" stroke-linecap="round" stroke-linejoin="round" d="m117.097 39.771 18.683 8.595"/><path d="m138.667 49.694-4.832-.21 1.729-1.217-.2-2.106z"/></g><g><path fill="none" stroke="#000" stroke-width=".75" stroke-linecap="round" stroke-linejoin="round" d="m69.254 19.411 10.838 5.026"/><path d="m66.371 18.074 3.292 3.543-.194-2.106 1.733-1.213z"/></g><g><path d="M152.943 31.044c.219-.141.565-.311.915-.435.499-.177.82-.173 1.061.007.2.132.32.402.32.817 0 .509-.246 1.043-.652 1.393v.016c.366-.006.795.254.795 1.036 0 .454-.131.846-.326 1.175-.269.435-.704.751-1.336.982-.345.126-.61.192-.777.222v-5.213zm.502 1.989.454-.163c.528-.19.837-.677.837-1.186 0-.619-.344-.739-.849-.559-.23.082-.362.152-.443.205v1.703zm0 2.537c.098-.012.242-.057.42-.122.516-.188.992-.62.992-1.387 0-.72-.452-.855-.998-.659l-.414.149v2.019z"/></g><path fill="none" d="M66.371 41.662 93.822 52.53"/><g><path d="m85.017 50.819.731.365v6.635l2.439 1.258v.811l-3.169-1.641v-7.428z"/></g></g><g><g fill="none" stroke="#000" stroke-linejoin="round" stroke-miterlimit="10"><path stroke-linecap="round" d="M26.869 35.773 13.07 39.788"/><path d="M13.07 39.788v6.004M7.378 47.502l11.285-3.39M10.237 49.659l5.642-1.721M11.657 52.211l2.821-.847"/></g><g fill="none" stroke="#000" stroke-width=".5" stroke-miterlimit="10"><path d="M189.004 77.217c0 3.226-1.911 4.962-4.249 3.889-2.316-1.064-4.178-4.49-4.178-7.662 0-3.171 1.861-4.93 4.178-3.921 2.338 1.02 4.249 4.467 4.249 7.694z"/><path d="m180.578 73.443-28.599-12.804v9.168M184.755 81.105v4.028"/></g><path d="m184.278 78.599-1.475-6.888.629.278.704 3.382c.195.928.363 1.763.484 2.549l.014.006c.128-.664.317-1.367.519-2.09l.77-2.746.63.279-1.63 5.523-.645-.293zM99.038 18.932v-.789l.623-.185v-6.27l-.623.178v-.789l1.988-.565v.786l-.62.177v6.262l.62-.184v.786l-1.988.593z"/></g></svg>
